<?xml version="1.0" encoding="utf-8"?>
<!-- Generator: Adobe Illustrator 24.3.0, SVG Export Plug-In . SVG Version: 6.00 Build 0)  -->
<svg version="1.1" id="Слой_1" xmlns="http://www.w3.org/2000/svg" xmlns:xlink="http://www.w3.org/1999/xlink" x="0px" y="0px"
	 viewBox="0 0 24 24" style="enable-background:new 0 0 24 24;" xml:space="preserve">
<style type="text/css">
	.st0{fill:#3C3C3B;stroke:#3C3C3B;stroke-width:2;stroke-miterlimit:10;}
</style>
<path class="st0" d="M18.74,12H5.69c-0.43,0-0.79-0.35-0.79-0.79v0c0-0.43,0.35-0.79,0.79-0.79h13.05c0.43,0,0.79,0.35,0.79,0.79v0
	C19.53,11.65,19.17,12,18.74,12z"/>
<path class="st0" d="M13,4.86v13.05c0,0.43-0.35,0.79-0.79,0.79h0c-0.43,0-0.79-0.35-0.79-0.79V4.86c0-0.43,0.35-0.79,0.79-0.79h0
	C12.65,4.07,13,4.43,13,4.86z"/>
</svg>
