<?xml version="1.0" encoding="utf-8"?>
<!-- Generator: Adobe Illustrator 24.3.0, SVG Export Plug-In . SVG Version: 6.00 Build 0)  -->
<svg version="1.1" id="Слой_1" xmlns="http://www.w3.org/2000/svg" xmlns:xlink="http://www.w3.org/1999/xlink" x="0px" y="0px"
	 viewBox="0 0 36 36" style="enable-background:new 0 0 36 36;" xml:space="preserve">
<style type="text/css">
	.st0{fill:none;stroke:#3C3C3B;stroke-miterlimit:10;}
</style>
<line class="st0" x1="18.06" y1="3.8" x2="18.06" y2="33.2"/>
<line class="st0" x1="4.85" y1="1.37" x2="18.24" y2="3.8"/>
<path class="st0" d="M17.6,32.59"/>
<path class="st0" d="M6.76,29.35"/>
<path class="st0" d="M18.24,4.24"/>
<path class="st0" d="M29.32,1.27"/>
<path class="st0" d="M17.65,32.59"/>
<path class="st0" d="M28.73,29.62"/>
<path class="st0" d="M2.49,3.95"/>
<path class="st0" d="M18.4,32.93H2.71c-1.15,0-2.07-0.9-2.07-2V5.95c0-0.91,0.54-1.65,1.4-1.89"/>
<line class="st0" x1="1.94" y1="2.17" x2="5.1" y2="2.54"/>
<line class="st0" x1="1.58" y1="30.68" x2="17.76" y2="32.93"/>
<line class="st0" x1="4.06" y1="28.93" x2="17.89" y2="32.67"/>
<line class="st0" x1="2.09" y1="2.26" x2="1.78" y2="30.76"/>
<line class="st0" x1="5" y1="1.27" x2="4.27" y2="28.98"/>
<line class="st0" x1="31.15" y1="1.37" x2="17.76" y2="3.8"/>
<path class="st0" d="M18.4,32.59"/>
<path class="st0" d="M29.24,29.35"/>
<path class="st0" d="M17.76,4.24"/>
<path class="st0" d="M18.35,32.59"/>
<path class="st0" d="M33.51,3.95"/>
<path class="st0" d="M18.24,32.93h15.13c1.1,0,2-0.9,2-2V5.95c0-0.91-0.52-1.65-1.35-1.89"/>
<line class="st0" x1="34.06" y1="2.17" x2="31.16" y2="2.51"/>
<line class="st0" x1="34.42" y1="30.68" x2="18.24" y2="32.93"/>
<line class="st0" x1="31.94" y1="28.93" x2="18.4" y2="32.59"/>
<line class="st0" x1="33.91" y1="2.26" x2="34.22" y2="30.76"/>
<line class="st0" x1="31" y1="1.27" x2="31.73" y2="28.98"/>
</svg>
