<?xml version="1.0" encoding="utf-8"?>
<!-- Generator: Adobe Illustrator 24.3.0, SVG Export Plug-In . SVG Version: 6.00 Build 0)  -->
<svg version="1.1" id="Слой_1" xmlns="http://www.w3.org/2000/svg" xmlns:xlink="http://www.w3.org/1999/xlink" x="0px" y="0px"
	 viewBox="0 0 36 36" style="enable-background:new 0 0 36 36;" xml:space="preserve">
<style type="text/css">
	.st0{fill:none;stroke:#3C3C3B;stroke-width:2;stroke-miterlimit:10;}
</style>
<path class="st0" d="M28.41,4.91l4.31,0.01c1.1,0,2,0.9,2,2v24.53c0,1.1-0.9,2-2,2H3.28c-1.1,0-2-0.9-2-2V6.92c0-1.1,0.9-2,2-2h4.44
	"/>
<path class="st0" d="M26.17,4.91"/>
<path class="st0" d="M25.7,4.91"/>
<line class="st0" x1="11.85" y1="4.89" x2="24.73" y2="4.91"/>
<path class="st0" d="M10.18,4.92"/>
<path class="st0" d="M9.1,4.92"/>
<path class="st0" d="M9.85,8.98H9.45c-1.1,0-2-0.9-2-2V2.86c0-1.1,0.9-2,2-2h0.41c1.1,0,2,0.9,2,2v4.12
	C11.85,8.09,10.96,8.98,9.85,8.98z"/>
<path class="st0" d="M26.63,8.95h-0.41c-1.1,0-2-0.9-2-2V2.83c0-1.1,0.9-2,2-2h0.41c1.1,0,2,0.9,2,2v4.12
	C28.63,8.05,27.74,8.95,26.63,8.95z"/>
<g>
	<rect x="6.18" y="12.26" class="st0" width="23.7" height="16.38"/>
	<line class="st0" x1="6.18" y1="24.55" x2="29.88" y2="24.55"/>
	<line class="st0" x1="6.18" y1="20.45" x2="29.88" y2="20.45"/>
	<line class="st0" x1="6.18" y1="16.35" x2="29.88" y2="16.35"/>
	<line class="st0" x1="23.95" y1="12.26" x2="23.95" y2="28.64"/>
	<line class="st0" x1="18.03" y1="12.26" x2="18.03" y2="28.64"/>
	<line class="st0" x1="12.1" y1="12.26" x2="12.1" y2="28.64"/>
</g>
</svg>
