<?xml version="1.0" encoding="utf-8"?>
<!-- Generator: Adobe Illustrator 24.3.0, SVG Export Plug-In . SVG Version: 6.00 Build 0)  -->
<svg version="1.1" id="Слой_1" xmlns="http://www.w3.org/2000/svg" xmlns:xlink="http://www.w3.org/1999/xlink" x="0px" y="0px"
	 viewBox="0 0 512 512" style="enable-background:new 0 0 512 512;" xml:space="preserve">
<style type="text/css">
	.st0{fill:#FFAF39;}
	.st1{fill:none;}
	.st2{fill:#E30613;stroke:#E30613;stroke-miterlimit:10;}
	.st3{fill:#1BB687;stroke:#1BB687;stroke-miterlimit:10;}
	.st4{fill:#E30613;stroke:#FFAF39;stroke-miterlimit:10;}
</style>
<rect x="-0.3" y="-0.39" class="st0" width="512" height="512"/>
<line class="st1" x1="137.28" y1="184.12" x2="199.7" y2="184.12"/>
<line class="st0" x1="144.3" y1="484.12" x2="244.3" y2="484.12"/>
<path class="st2" d="M163.56,240.36"/>
<path class="st3" d="M372.02,191.94L255.96,339.62c-0.34,0.43-0.97,0.51-1.4,0.17l-18.86-14.82c-0.43-0.34-0.51-0.97-0.17-1.4
	l116.06-147.68c0.34-0.43,0.97-0.51,1.4-0.17l18.86,14.82C372.28,190.88,372.36,191.5,372.02,191.94z"/>
<path class="st3" d="M140.32,217.01l110.23,86.63c0.43,0.34,0.51,0.97,0.17,1.4L235.9,323.9c-0.34,0.43-0.97,0.51-1.4,0.17
	l-110.23-86.63c-0.43-0.34-0.51-0.97-0.17-1.4l14.82-18.86C139.26,216.74,139.89,216.67,140.32,217.01z"/>
<path class="st4" d="M355.93,147.7L244.91,288.97c-0.34,0.43-0.97,0.51-1.4,0.17l-18.86-14.82c-0.43-0.34-0.51-0.97-0.17-1.4
	L335.5,131.65c0.34-0.43,0.97-0.51,1.4-0.17l18.86,14.82C356.2,146.64,356.27,147.27,355.93,147.7z"/>
<path class="st4" d="M139.1,263.94l100.28,78.81c0.43,0.34,0.51,0.97,0.17,1.4l-14.82,18.86c-0.34,0.43-0.97,0.51-1.4,0.17
	l-100.28-78.81c-0.43-0.34-0.51-0.97-0.17-1.4l14.82-18.86C138.04,263.68,138.66,263.6,139.1,263.94z"/>
</svg>
