<?xml version="1.0" encoding="utf-8"?>
<!-- Generator: Adobe Illustrator 24.3.0, SVG Export Plug-In . SVG Version: 6.00 Build 0)  -->
<svg version="1.1" id="Слой_1" xmlns="http://www.w3.org/2000/svg" xmlns:xlink="http://www.w3.org/1999/xlink" x="0px" y="0px"
	 viewBox="0 0 24 24" style="enable-background:new 0 0 24 24;" xml:space="preserve">
<style type="text/css">
	.st0{fill:none;stroke:#3C3C3B;stroke-width:2;stroke-miterlimit:10;}
</style>
<ellipse transform="matrix(0.459 -0.8884 0.8884 0.459 6.0333 17.1936)" class="st0" cx="17.13" cy="3.64" rx="1.42" ry="3.68"/>
<path class="st0" d="M14.49,12.17c3,2.31,4.96,5.88,4.14,7.12c-1.02,1.54-6.36-0.51-9.69-2.66c-2.01-1.3-6.14-4.47-5.37-6.04
	C4.22,9.25,8.43,9.13,12,10.69"/>
<path class="st0" d="M10.09,13.04c1.81-2.99,3.62-5.98,5.44-8.97"/>
<path class="st0" d="M12.47,14.81c1.59-3.05,3.18-6.1,4.77-9.15"/>
<path class="st0" d="M21.22,14.42"/>
<path class="st0" d="M10.18,12.22c0.08,0.23,0.35,0.98,1.18,1.52c0.86,0.57,1.75,0.55,2.01,0.53"/>
<line class="st0" x1="13.8" y1="11.69" x2="13.8" y2="11.69"/>
<path class="st0" d="M7.75,15.6c-2.1,4.54-2.1,4.54-2.1,4.54l-0.57,1.91l2-0.66l3.11-3.62"/>
</svg>
