<?xml version="1.0" encoding="utf-8"?>
<!-- Generator: Adobe Illustrator 24.3.0, SVG Export Plug-In . SVG Version: 6.00 Build 0)  -->
<svg version="1.1" id="Слой_1" xmlns="http://www.w3.org/2000/svg" xmlns:xlink="http://www.w3.org/1999/xlink" x="0px" y="0px"
	 viewBox="0 0 36 36" style="enable-background:new 0 0 36 36;" xml:space="preserve">
<style type="text/css">
	.st0{fill:#FFFFFF;stroke:#3C3C3B;stroke-miterlimit:10;}
	.st1{fill:none;stroke:#3C3C3B;stroke-width:2;stroke-miterlimit:10;}
	.st2{fill:#FFFFFF;stroke:#3C3C3B;stroke-width:2;stroke-miterlimit:10;}
	.st3{fill:#706F6F;stroke:#3C3C3B;stroke-miterlimit:10;}
</style>
<path class="st0" d="M2.48,8.38"/>
<path class="st1" d="M25.29,33.03H3.98c-1.03,0-1.86-0.87-1.86-1.94V8.02"/>
<path class="st1" d="M8.99,1.17h21.58c1.06,0,1.91,0.85,1.91,1.91V24.6"/>
<path class="st2" d="M9.42,0.71l0,5.36c0,1.22-0.97,2.2-2.18,2.2l-5.63,0"/>
<circle class="st1" cx="29.19" cy="28.74" r="5.63"/>
<path class="st0" d="M2.12,7.8"/>
<polyline class="st1" points="2.12,8.61 2.12,7.81 8.9,1.16 9.42,1.16 "/>
<path class="st3" d="M29.19,32.7L29.19,32.7c-0.22,0-0.4-0.18-0.4-0.4v-7.13c0-0.22,0.18-0.4,0.4-0.4h0c0.22,0,0.4,0.18,0.4,0.4
	v7.13C29.59,32.52,29.41,32.7,29.19,32.7z"/>
<path class="st3" d="M33.15,28.74L33.15,28.74c0,0.22-0.18,0.4-0.4,0.4l-7.13,0c-0.22,0-0.4-0.18-0.4-0.4v0c0-0.22,0.18-0.4,0.4-0.4
	l7.13,0C32.97,28.34,33.15,28.52,33.15,28.74z"/>
<path class="st3" d="M7.73,12.17L7.73,12.17c-0.11,0.09-0.27,0.08-0.36-0.03l-0.76-0.87C6.52,11.16,6.53,11,6.63,10.91h0
	C6.74,10.82,6.9,10.83,7,10.93l0.76,0.87C7.85,11.91,7.84,12.07,7.73,12.17z"/>
<path class="st3" d="M7.54,12.2L7.54,12.2c-0.09-0.11-0.08-0.27,0.03-0.36l1.54-1.34c0.11-0.09,0.27-0.08,0.36,0.03l0,0
	c0.09,0.11,0.08,0.27-0.03,0.36L7.9,12.22C7.79,12.32,7.63,12.3,7.54,12.2z"/>
<path class="st3" d="M21.64,27.89h-9.48c-0.22,0-0.4-0.18-0.4-0.4v-0.06c0-0.22,0.18-0.41,0.4-0.41h9.48c0.22,0,0.41,0.18,0.41,0.41
	v0.06C22.04,27.71,21.86,27.89,21.64,27.89z"/>
<path class="st3" d="M7.34,17.48L7.34,17.48c-0.09-0.11-0.08-0.27,0.03-0.36l1.54-1.34c0.11-0.09,0.27-0.08,0.36,0.03v0
	c0.09,0.11,0.08,0.27-0.03,0.36l-1.54,1.34C7.6,17.6,7.44,17.59,7.34,17.48z"/>
<path class="st3" d="M7.54,17.27L7.54,17.27c-0.11,0.09-0.27,0.08-0.36-0.03l-0.76-0.87c-0.09-0.11-0.08-0.27,0.03-0.36l0,0
	c0.11-0.09,0.27-0.08,0.36,0.03l0.76,0.87C7.65,17.02,7.64,17.18,7.54,17.27z"/>
<path class="st3" d="M7.24,22.46L7.24,22.46c-0.09-0.11-0.08-0.27,0.03-0.36l1.54-1.34c0.11-0.09,0.27-0.08,0.36,0.03l0,0
	c0.09,0.11,0.08,0.27-0.03,0.36L7.6,22.49C7.49,22.58,7.33,22.57,7.24,22.46z"/>
<path class="st3" d="M7.51,22.57L7.51,22.57c-0.11,0.09-0.27,0.08-0.36-0.03l-0.76-0.87c-0.09-0.11-0.08-0.27,0.03-0.36h0
	c0.11-0.09,0.27-0.08,0.36,0.03l0.76,0.87C7.63,22.31,7.62,22.47,7.51,22.57z"/>
<path class="st3" d="M7.65,27.86L7.65,27.86c-0.09-0.11-0.08-0.27,0.03-0.36l1.54-1.34c0.11-0.09,0.27-0.08,0.36,0.03l0,0
	c0.09,0.11,0.08,0.27-0.03,0.36l-1.54,1.34C7.91,27.98,7.74,27.96,7.65,27.86z"/>
<path class="st3" d="M7.79,28.01L7.79,28.01c-0.11,0.09-0.27,0.08-0.36-0.03l-0.76-0.87c-0.09-0.11-0.08-0.27,0.03-0.36h0
	c0.11-0.09,0.27-0.08,0.36,0.03l0.76,0.87C7.91,27.75,7.9,27.91,7.79,28.01z"/>
<path class="st3" d="M24.13,22.37H11.99c-0.22,0-0.4-0.18-0.4-0.41v-0.06c0-0.22,0.18-0.41,0.4-0.41h12.13
	c0.22,0,0.41,0.18,0.41,0.41v0.06C24.53,22.19,24.35,22.37,24.13,22.37z"/>
<path class="st3" d="M26.89,17.25H11.99c-0.22,0-0.4-0.18-0.4-0.4v-0.06c0-0.22,0.18-0.4,0.4-0.4h14.89c0.22,0,0.41,0.18,0.41,0.4
	v0.06C27.29,17.07,27.11,17.25,26.89,17.25z"/>
<path class="st3" d="M26.89,11.57H11.99c-0.22,0-0.4-0.18-0.4-0.4V11.1c0-0.22,0.18-0.4,0.4-0.4h14.89c0.22,0,0.41,0.18,0.41,0.4
	v0.06C27.29,11.39,27.11,11.57,26.89,11.57z"/>
</svg>
